<?xml version="1.0" encoding="UTF-8" standalone="no"?>
<svg width="256" height="300" xmlns="http://www.w3.org/2000/svg">
  <rect width="128" height="300" x="64" y="0" rx="25" fill="grey" />
  <path d="M 64 214 V 275 A 25 25 0 0 0 89 300 H 167 A 25 25 0 0 0 192 275 V 86 Z" fill="dimgrey"/>
  <circle cx="128" cy="64" r="35" fill= "red"/>
  <circle cx="128" cy="150" r="35" fill= "black"/>
  <path d="M 0 35 A 35 35 0 0 0 70 35 Z" fill="firebrick" transform="translate(93,29) rotate(-45, 35, 35)"/>
  <circle cx="128" cy="236" r="35" fill= "black"/>

  <rect width="50" height="16" rx="8" x="0" y="0" fill="red" transform="translate(0,56)"/>
  <rect width="50" height="16" rx="8" x="0" y="0" fill="red" transform="translate(10,94) rotate(-45, 25, 8)" />
  <rect width="50" height="16" rx="8" x="0" y="0" fill="red" transform="translate(10,18) rotate(45, 25, 8)" />

  <rect width="50" height="16" rx="8" x="0" y="0" fill="red" transform="translate(206,56)"/>
  <rect width="50" height="16" rx="8" x="0" y="0" fill="red" transform="translate(196,94) rotate(45, 25, 8)" />
  <rect width="50" height="16" rx="8" x="0" y="0" fill="red" transform="translate(196,18) rotate(-45, 25, 8)" />
</svg>